<svg width="78" height="78" fill="none" xmlns="http://www.w3.org/2000/svg"><path d="M69.333 0H8.667C3.9 0 0 3.9 0 8.667v60.666C0 74.1 3.9 78 8.667 78h60.666C74.1 78 78 74.1 78 69.333V8.667C78 3.9 74.1 0 69.333 0zM19.5 65a6.491 6.491 0 01-6.5-6.5c0-3.597 2.903-6.5 6.5-6.5s6.5 2.903 6.5 6.5-2.903 6.5-6.5 6.5zm0-39a6.491 6.491 0 01-6.5-6.5c0-3.597 2.903-6.5 6.5-6.5s6.5 2.903 6.5 6.5-2.903 6.5-6.5 6.5zM39 45.5a6.491 6.491 0 01-6.5-6.5c0-3.597 2.903-6.5 6.5-6.5s6.5 2.903 6.5 6.5-2.903 6.5-6.5 6.5zM58.5 65a6.491 6.491 0 01-6.5-6.5c0-3.597 2.903-6.5 6.5-6.5s6.5 2.903 6.5 6.5-2.903 6.5-6.5 6.5zm0-39a6.491 6.491 0 01-6.5-6.5c0-3.597 2.903-6.5 6.5-6.5s6.5 2.903 6.5 6.5-2.903 6.5-6.5 6.5z" fill="red"/></svg>